<mxfile host="Electron" modified="2023-12-11T20:15:54.426Z" agent="Mozilla/5.0 (Windows NT 10.0; Win64; x64) AppleWebKit/537.36 (KHTML, like Gecko) draw.io/22.1.2 Chrome/114.0.5735.289 Electron/25.9.4 Safari/537.36" etag="FPE0rjZhaSE0H4pLiEmy" version="22.1.2" type="device">
  <diagram name="Page-1" id="2YBvvXClWsGukQMizWep">
    <mxGraphModel dx="1005" dy="674" grid="1" gridSize="10" guides="1" tooltips="1" connect="1" arrows="1" fold="1" page="1" pageScale="1" pageWidth="850" pageHeight="1100" math="0" shadow="0">
      <root>
        <mxCell id="0" />
        <mxCell id="1" parent="0" />
        <mxCell id="aM9ryv3xv72pqoxQDRHE-1" value=":GUI" style="shape=umlLifeline;perimeter=lifelinePerimeter;whiteSpace=wrap;html=1;container=0;dropTarget=0;collapsible=0;recursiveResize=0;outlineConnect=0;portConstraint=eastwest;newEdgeStyle={&quot;edgeStyle&quot;:&quot;elbowEdgeStyle&quot;,&quot;elbow&quot;:&quot;vertical&quot;,&quot;curved&quot;:0,&quot;rounded&quot;:0};" parent="1" vertex="1">
          <mxGeometry x="245" y="10" width="100" height="510" as="geometry" />
        </mxCell>
        <mxCell id="mYMdUlZrEyGZEMmPKu3F-15" value="" style="html=1;points=[];perimeter=orthogonalPerimeter;outlineConnect=0;targetShapes=umlLifeline;portConstraint=eastwest;newEdgeStyle={&quot;edgeStyle&quot;:&quot;elbowEdgeStyle&quot;,&quot;elbow&quot;:&quot;vertical&quot;,&quot;curved&quot;:0,&quot;rounded&quot;:0};" parent="aM9ryv3xv72pqoxQDRHE-1" vertex="1">
          <mxGeometry x="45" y="62" width="10" height="438" as="geometry" />
        </mxCell>
        <mxCell id="aM9ryv3xv72pqoxQDRHE-5" value=":Валидатор" style="shape=umlLifeline;perimeter=lifelinePerimeter;whiteSpace=wrap;html=1;container=0;dropTarget=0;collapsible=0;recursiveResize=0;outlineConnect=0;portConstraint=eastwest;newEdgeStyle={&quot;edgeStyle&quot;:&quot;elbowEdgeStyle&quot;,&quot;elbow&quot;:&quot;vertical&quot;,&quot;curved&quot;:0,&quot;rounded&quot;:0};" parent="1" vertex="1">
          <mxGeometry x="425" y="10" width="100" height="510" as="geometry" />
        </mxCell>
        <mxCell id="mYMdUlZrEyGZEMmPKu3F-20" value="" style="html=1;points=[];perimeter=orthogonalPerimeter;outlineConnect=0;targetShapes=umlLifeline;portConstraint=eastwest;newEdgeStyle={&quot;edgeStyle&quot;:&quot;elbowEdgeStyle&quot;,&quot;elbow&quot;:&quot;vertical&quot;,&quot;curved&quot;:0,&quot;rounded&quot;:0};" parent="aM9ryv3xv72pqoxQDRHE-5" vertex="1">
          <mxGeometry x="45" y="112" width="10" height="248" as="geometry" />
        </mxCell>
        <mxCell id="mYMdUlZrEyGZEMmPKu3F-1" value=":Компонент работы с БД" style="shape=umlLifeline;perimeter=lifelinePerimeter;whiteSpace=wrap;html=1;container=0;dropTarget=0;collapsible=0;recursiveResize=0;outlineConnect=0;portConstraint=eastwest;newEdgeStyle={&quot;edgeStyle&quot;:&quot;elbowEdgeStyle&quot;,&quot;elbow&quot;:&quot;vertical&quot;,&quot;curved&quot;:0,&quot;rounded&quot;:0};" parent="1" vertex="1">
          <mxGeometry x="595" y="10" width="100" height="510" as="geometry" />
        </mxCell>
        <mxCell id="mYMdUlZrEyGZEMmPKu3F-43" value="" style="html=1;points=[];perimeter=orthogonalPerimeter;outlineConnect=0;targetShapes=umlLifeline;portConstraint=eastwest;newEdgeStyle={&quot;edgeStyle&quot;:&quot;elbowEdgeStyle&quot;,&quot;elbow&quot;:&quot;vertical&quot;,&quot;curved&quot;:0,&quot;rounded&quot;:0};" parent="mYMdUlZrEyGZEMmPKu3F-1" vertex="1">
          <mxGeometry x="45" y="130" width="10" height="40" as="geometry" />
        </mxCell>
        <mxCell id="mYMdUlZrEyGZEMmPKu3F-11" value=":Система уведомлений" style="shape=umlLifeline;perimeter=lifelinePerimeter;whiteSpace=wrap;html=1;container=0;dropTarget=0;collapsible=0;recursiveResize=0;outlineConnect=0;portConstraint=eastwest;newEdgeStyle={&quot;edgeStyle&quot;:&quot;elbowEdgeStyle&quot;,&quot;elbow&quot;:&quot;vertical&quot;,&quot;curved&quot;:0,&quot;rounded&quot;:0};" parent="1" vertex="1">
          <mxGeometry x="750" y="10" width="100" height="510" as="geometry" />
        </mxCell>
        <mxCell id="mYMdUlZrEyGZEMmPKu3F-13" value="" style="endArrow=classic;html=1;rounded=0;" parent="1" edge="1">
          <mxGeometry width="50" height="50" relative="1" as="geometry">
            <mxPoint x="80" y="79" as="sourcePoint" />
            <mxPoint x="290" y="79" as="targetPoint" />
          </mxGeometry>
        </mxCell>
        <mxCell id="mYMdUlZrEyGZEMmPKu3F-14" value="Выбрать создать пользователя" style="edgeLabel;html=1;align=center;verticalAlign=middle;resizable=0;points=[];" parent="mYMdUlZrEyGZEMmPKu3F-13" vertex="1" connectable="0">
          <mxGeometry x="-0.2036" y="-1" relative="1" as="geometry">
            <mxPoint x="13" y="-11" as="offset" />
          </mxGeometry>
        </mxCell>
        <mxCell id="mYMdUlZrEyGZEMmPKu3F-16" value="" style="endArrow=classic;html=1;rounded=0;" parent="1" source="mYMdUlZrEyGZEMmPKu3F-24" edge="1">
          <mxGeometry width="50" height="50" relative="1" as="geometry">
            <mxPoint x="90" y="105" as="sourcePoint" />
            <mxPoint x="290" y="105" as="targetPoint" />
          </mxGeometry>
        </mxCell>
        <mxCell id="mYMdUlZrEyGZEMmPKu3F-17" value="Заполнить поля формы" style="edgeLabel;html=1;align=center;verticalAlign=middle;resizable=0;points=[];" parent="mYMdUlZrEyGZEMmPKu3F-16" vertex="1" connectable="0">
          <mxGeometry x="-0.2036" y="-1" relative="1" as="geometry">
            <mxPoint x="13" y="-11" as="offset" />
          </mxGeometry>
        </mxCell>
        <mxCell id="mYMdUlZrEyGZEMmPKu3F-21" value="" style="endArrow=classic;html=1;rounded=0;" parent="1" edge="1">
          <mxGeometry width="50" height="50" relative="1" as="geometry">
            <mxPoint x="300" y="127" as="sourcePoint" />
            <mxPoint x="470" y="127" as="targetPoint" />
          </mxGeometry>
        </mxCell>
        <mxCell id="mYMdUlZrEyGZEMmPKu3F-22" value="Валидация полей" style="edgeLabel;html=1;align=center;verticalAlign=middle;resizable=0;points=[];" parent="mYMdUlZrEyGZEMmPKu3F-21" vertex="1" connectable="0">
          <mxGeometry x="-0.2036" y="-1" relative="1" as="geometry">
            <mxPoint x="13" y="-11" as="offset" />
          </mxGeometry>
        </mxCell>
        <mxCell id="mYMdUlZrEyGZEMmPKu3F-23" value="" style="shape=umlLifeline;perimeter=lifelinePerimeter;whiteSpace=wrap;html=1;container=1;dropTarget=0;collapsible=0;recursiveResize=0;outlineConnect=0;portConstraint=eastwest;newEdgeStyle={&quot;curved&quot;:0,&quot;rounded&quot;:0};participant=umlActor;" parent="1" vertex="1">
          <mxGeometry x="65" y="10" width="20" height="510" as="geometry" />
        </mxCell>
        <mxCell id="mYMdUlZrEyGZEMmPKu3F-24" value="" style="html=1;points=[];perimeter=orthogonalPerimeter;outlineConnect=0;targetShapes=umlLifeline;portConstraint=eastwest;newEdgeStyle={&quot;edgeStyle&quot;:&quot;elbowEdgeStyle&quot;,&quot;elbow&quot;:&quot;vertical&quot;,&quot;curved&quot;:0,&quot;rounded&quot;:0};" parent="mYMdUlZrEyGZEMmPKu3F-23" vertex="1">
          <mxGeometry x="5" y="52" width="10" height="448" as="geometry" />
        </mxCell>
        <mxCell id="mYMdUlZrEyGZEMmPKu3F-28" value="" style="endArrow=classic;html=1;rounded=0;dashed=1;" parent="1" edge="1">
          <mxGeometry width="50" height="50" relative="1" as="geometry">
            <mxPoint x="469.9999999999998" y="224" as="sourcePoint" />
            <mxPoint x="300" y="224" as="targetPoint" />
          </mxGeometry>
        </mxCell>
        <mxCell id="mYMdUlZrEyGZEMmPKu3F-29" value="Поля невалидны" style="edgeLabel;html=1;align=center;verticalAlign=middle;resizable=0;points=[];" parent="mYMdUlZrEyGZEMmPKu3F-28" vertex="1" connectable="0">
          <mxGeometry x="-0.2036" y="-1" relative="1" as="geometry">
            <mxPoint x="-14" y="-9" as="offset" />
          </mxGeometry>
        </mxCell>
        <mxCell id="mYMdUlZrEyGZEMmPKu3F-25" value="alt" style="shape=umlFrame;whiteSpace=wrap;html=1;pointerEvents=0;recursiveResize=0;container=1;collapsible=0;width=40;height=15;" parent="1" vertex="1">
          <mxGeometry x="15" y="190" width="830" height="330" as="geometry" />
        </mxCell>
        <mxCell id="mYMdUlZrEyGZEMmPKu3F-26" value="[Валидация провалена]" style="text;html=1;" parent="mYMdUlZrEyGZEMmPKu3F-25" vertex="1">
          <mxGeometry width="100" height="20" relative="1" as="geometry">
            <mxPoint y="10" as="offset" />
          </mxGeometry>
        </mxCell>
        <mxCell id="mYMdUlZrEyGZEMmPKu3F-27" value="" style="line;strokeWidth=1;dashed=1;labelPosition=center;verticalLabelPosition=bottom;align=left;verticalAlign=top;spacingLeft=20;spacingTop=15;html=1;whiteSpace=wrap;" parent="mYMdUlZrEyGZEMmPKu3F-25" vertex="1">
          <mxGeometry y="136" width="830" height="10" as="geometry" />
        </mxCell>
        <mxCell id="mYMdUlZrEyGZEMmPKu3F-30" value="[Валидация пройдена]" style="text;html=1;" parent="mYMdUlZrEyGZEMmPKu3F-25" vertex="1">
          <mxGeometry x="-2.2737367544323206e-13" y="146" width="100" height="20" as="geometry" />
        </mxCell>
        <mxCell id="mYMdUlZrEyGZEMmPKu3F-49" value="" style="html=1;points=[];perimeter=orthogonalPerimeter;outlineConnect=0;targetShapes=umlLifeline;portConstraint=eastwest;newEdgeStyle={&quot;edgeStyle&quot;:&quot;elbowEdgeStyle&quot;,&quot;elbow&quot;:&quot;vertical&quot;,&quot;curved&quot;:0,&quot;rounded&quot;:0};" parent="mYMdUlZrEyGZEMmPKu3F-25" vertex="1">
          <mxGeometry x="280" y="254" width="10" height="60" as="geometry" />
        </mxCell>
        <mxCell id="mYMdUlZrEyGZEMmPKu3F-53" value="" style="html=1;points=[];perimeter=orthogonalPerimeter;outlineConnect=0;targetShapes=umlLifeline;portConstraint=eastwest;newEdgeStyle={&quot;edgeStyle&quot;:&quot;elbowEdgeStyle&quot;,&quot;elbow&quot;:&quot;vertical&quot;,&quot;curved&quot;:0,&quot;rounded&quot;:0};" parent="mYMdUlZrEyGZEMmPKu3F-25" vertex="1">
          <mxGeometry x="280" y="64" width="10" height="60" as="geometry" />
        </mxCell>
        <mxCell id="mYMdUlZrEyGZEMmPKu3F-54" value="" style="endArrow=classic;html=1;rounded=0;" parent="mYMdUlZrEyGZEMmPKu3F-25" target="mYMdUlZrEyGZEMmPKu3F-53" edge="1">
          <mxGeometry width="50" height="50" relative="1" as="geometry">
            <mxPoint x="285" y="50" as="sourcePoint" />
            <mxPoint x="380" y="53.999999999999886" as="targetPoint" />
            <Array as="points">
              <mxPoint x="350" y="50" />
              <mxPoint x="350" y="84" />
            </Array>
          </mxGeometry>
        </mxCell>
        <mxCell id="mYMdUlZrEyGZEMmPKu3F-55" value="Уведомить о невалидности&lt;br&gt;полей" style="edgeLabel;html=1;align=center;verticalAlign=middle;resizable=0;points=[];" parent="mYMdUlZrEyGZEMmPKu3F-54" vertex="1" connectable="0">
          <mxGeometry x="-0.2036" y="-1" relative="1" as="geometry">
            <mxPoint x="21" y="50" as="offset" />
          </mxGeometry>
        </mxCell>
        <mxCell id="mYMdUlZrEyGZEMmPKu3F-31" value="" style="endArrow=classic;html=1;rounded=0;" parent="1" target="mYMdUlZrEyGZEMmPKu3F-43" edge="1">
          <mxGeometry width="50" height="50" relative="1" as="geometry">
            <mxPoint x="479.9999999999998" y="147" as="sourcePoint" />
            <mxPoint x="679.5" y="147" as="targetPoint" />
          </mxGeometry>
        </mxCell>
        <mxCell id="mYMdUlZrEyGZEMmPKu3F-32" value="Получить пользователей" style="edgeLabel;html=1;align=center;verticalAlign=middle;resizable=0;points=[];" parent="mYMdUlZrEyGZEMmPKu3F-31" vertex="1" connectable="0">
          <mxGeometry x="-0.2036" y="-1" relative="1" as="geometry">
            <mxPoint x="13" y="-11" as="offset" />
          </mxGeometry>
        </mxCell>
        <mxCell id="mYMdUlZrEyGZEMmPKu3F-33" value="" style="endArrow=classic;html=1;rounded=0;dashed=1;" parent="1" source="mYMdUlZrEyGZEMmPKu3F-43" edge="1">
          <mxGeometry width="50" height="50" relative="1" as="geometry">
            <mxPoint x="679.5" y="175.0000000000001" as="sourcePoint" />
            <mxPoint x="479.9999999999998" y="175.0000000000001" as="targetPoint" />
          </mxGeometry>
        </mxCell>
        <mxCell id="mYMdUlZrEyGZEMmPKu3F-34" value="Пользователи" style="edgeLabel;html=1;align=center;verticalAlign=middle;resizable=0;points=[];" parent="mYMdUlZrEyGZEMmPKu3F-33" vertex="1" connectable="0">
          <mxGeometry x="-0.2036" y="-1" relative="1" as="geometry">
            <mxPoint x="-14" y="-9" as="offset" />
          </mxGeometry>
        </mxCell>
        <mxCell id="mYMdUlZrEyGZEMmPKu3F-46" value="" style="endArrow=classic;html=1;rounded=0;dashed=1;" parent="1" source="mYMdUlZrEyGZEMmPKu3F-20" edge="1">
          <mxGeometry width="50" height="50" relative="1" as="geometry">
            <mxPoint x="475" y="361" as="sourcePoint" />
            <mxPoint x="300" y="361" as="targetPoint" />
          </mxGeometry>
        </mxCell>
        <mxCell id="mYMdUlZrEyGZEMmPKu3F-47" value="Поля валидны" style="edgeLabel;html=1;align=center;verticalAlign=middle;resizable=0;points=[];" parent="mYMdUlZrEyGZEMmPKu3F-46" vertex="1" connectable="0">
          <mxGeometry x="-0.2036" y="-1" relative="1" as="geometry">
            <mxPoint x="-14" y="-9" as="offset" />
          </mxGeometry>
        </mxCell>
        <mxCell id="mYMdUlZrEyGZEMmPKu3F-39" value="" style="endArrow=classic;html=1;rounded=0;" parent="1" edge="1" target="mYMdUlZrEyGZEMmPKu3F-1">
          <mxGeometry width="50" height="50" relative="1" as="geometry">
            <mxPoint x="300" y="392" as="sourcePoint" />
            <mxPoint x="645" y="392" as="targetPoint" />
          </mxGeometry>
        </mxCell>
        <mxCell id="mYMdUlZrEyGZEMmPKu3F-40" value="Добавить пользователя" style="edgeLabel;html=1;align=center;verticalAlign=middle;resizable=0;points=[];" parent="mYMdUlZrEyGZEMmPKu3F-39" vertex="1" connectable="0">
          <mxGeometry x="-0.2036" y="-1" relative="1" as="geometry">
            <mxPoint x="13" y="-11" as="offset" />
          </mxGeometry>
        </mxCell>
        <mxCell id="mYMdUlZrEyGZEMmPKu3F-41" value="" style="endArrow=classic;html=1;rounded=0;dashed=1;" parent="1" edge="1" target="mYMdUlZrEyGZEMmPKu3F-11">
          <mxGeometry width="50" height="50" relative="1" as="geometry">
            <mxPoint x="300" y="420" as="sourcePoint" />
            <mxPoint x="795" y="420" as="targetPoint" />
          </mxGeometry>
        </mxCell>
        <mxCell id="mYMdUlZrEyGZEMmPKu3F-42" value="Отправить уведомление" style="edgeLabel;html=1;align=center;verticalAlign=middle;resizable=0;points=[];" parent="mYMdUlZrEyGZEMmPKu3F-41" vertex="1" connectable="0">
          <mxGeometry x="-0.2036" y="-1" relative="1" as="geometry">
            <mxPoint x="13" y="-11" as="offset" />
          </mxGeometry>
        </mxCell>
        <mxCell id="mYMdUlZrEyGZEMmPKu3F-50" value="" style="endArrow=classic;html=1;rounded=0;" parent="1" target="mYMdUlZrEyGZEMmPKu3F-49" edge="1">
          <mxGeometry width="50" height="50" relative="1" as="geometry">
            <mxPoint x="300" y="430" as="sourcePoint" />
            <mxPoint x="395" y="433.9999999999999" as="targetPoint" />
            <Array as="points">
              <mxPoint x="365" y="430" />
              <mxPoint x="365" y="464" />
            </Array>
          </mxGeometry>
        </mxCell>
        <mxCell id="mYMdUlZrEyGZEMmPKu3F-51" value="Уведомить об успешном&lt;br&gt;создании пользователя" style="edgeLabel;html=1;align=center;verticalAlign=middle;resizable=0;points=[];" parent="mYMdUlZrEyGZEMmPKu3F-50" vertex="1" connectable="0">
          <mxGeometry x="-0.2036" y="-1" relative="1" as="geometry">
            <mxPoint x="21" y="49" as="offset" />
          </mxGeometry>
        </mxCell>
      </root>
    </mxGraphModel>
  </diagram>
</mxfile>
